HIERARCHY
ROOT Hips
{
	OFFSET 0.00000 0.00000 0.00000
	CHANNELS 6 Xposition Yposition Zposition Zrotation Yrotation Xrotation 
	JOINT LHipJoint
	{
		OFFSET 0 0 0
		CHANNELS 3 Zrotation Yrotation Xrotation
		JOINT LeftUpLeg
		{
			OFFSET 1.64577 -1.42384 0.94276
			CHANNELS 3 Zrotation Yrotation Xrotation
			JOINT LeftLeg
			{
				OFFSET 2.11538 -5.81197 0.00000
				CHANNELS 3 Zrotation Yrotation Xrotation
				JOINT LeftFoot
				{
					OFFSET 2.36541 -6.49893 0.00000
					CHANNELS 3 Zrotation Yrotation Xrotation
					JOINT LeftToeBase
					{
						OFFSET 0.17759 -0.48793 1.73865
						CHANNELS 3 Zrotation Yrotation Xrotation
						End Site
						{
							OFFSET 0.00000 -0.00000 0.91205
						}
					}
				}
			}
		}
	}
	JOINT RHipJoint
	{
		OFFSET 0 0 0
		CHANNELS 3 Zrotation Yrotation Xrotation
		JOINT RightUpLeg
		{
			OFFSET -1.43750 -1.42384 0.94276
			CHANNELS 3 Zrotation Yrotation Xrotation
			JOINT RightLeg
			{
				OFFSET -2.10480 -5.78291 0.00000
				CHANNELS 3 Zrotation Yrotation Xrotation
				JOINT RightFoot
				{
					OFFSET -2.34880 -6.45329 0.00000
					CHANNELS 3 Zrotation Yrotation Xrotation
					JOINT RightToeBase
					{
						OFFSET -0.22842 -0.62757 1.80469
						CHANNELS 3 Zrotation Yrotation Xrotation
						End Site
						{
							OFFSET -0.00000 -0.00000 0.95886
						}
					}
				}
			}
		}
	}
	JOINT LowerBack
	{
		OFFSET 0 0 0
		CHANNELS 3 Zrotation Yrotation Xrotation
		JOINT Spine
		{
			OFFSET 0.06217 1.93758 -0.49272
			CHANNELS 3 Zrotation Yrotation Xrotation
			JOINT Spine1
			{
				OFFSET -0.03114 2.03621 -0.05830
				CHANNELS 3 Zrotation Yrotation Xrotation
				JOINT Neck
				{
					OFFSET 0 0 0
					CHANNELS 3 Zrotation Yrotation Xrotation
					JOINT Neck1
					{
						OFFSET 0.04421 1.41010 0.26562
						CHANNELS 3 Zrotation Yrotation Xrotation
						JOINT Head
						{
							OFFSET -0.13407 1.43847 0.06181
							CHANNELS 3 Zrotation Yrotation Xrotation
							End Site
							{
								OFFSET -0.04980 1.45844 -0.00689
							}
						}
					}
				}
				JOINT LeftShoulder
				{
					OFFSET 0 0 0
					CHANNELS 3 Zrotation Yrotation Xrotation
					JOINT LeftArm
					{
						OFFSET 2.18382 1.47753 -0.35694
						CHANNELS 3 Zrotation Yrotation Xrotation
						JOINT LeftForeArm
						{
							OFFSET 5.05460 -0.00000 0.00000
							CHANNELS 3 Zrotation Yrotation Xrotation
							JOINT LeftHand
							{
								OFFSET 3.39013 -0.00000 0.00000
								CHANNELS 3 Zrotation Yrotation Xrotation
								JOINT LeftFingerBase
								{
									OFFSET 0 0 0
									CHANNELS 3 Zrotation Yrotation Xrotation
									JOINT LeftHandIndex1
									{
										OFFSET 0.57242 -0.00000 -0.00000
										CHANNELS 3 Zrotation Yrotation Xrotation
										End Site
										{
											OFFSET 0.46150 -0.00000 -0.00000
										}
									}
								}
								JOINT LThumb
								{
									OFFSET 0 0 0
									CHANNELS 3 Zrotation Yrotation Xrotation
									End Site
									{
										OFFSET 0.46855 -0.00000 0.46855
									}
								}
							}
						}
					}
				}
				JOINT RightShoulder
				{
					OFFSET 0 0 0
					CHANNELS 3 Zrotation Yrotation Xrotation
					JOINT RightArm
					{
						OFFSET -2.06033 1.72839 -0.47437
						CHANNELS 3 Zrotation Yrotation Xrotation
						JOINT RightForeArm
						{
							OFFSET -5.07010 -0.00000 0.00000
							CHANNELS 3 Zrotation Yrotation Xrotation
							JOINT RightHand
							{
								OFFSET -3.14957 -0.00000 -0.00000
								CHANNELS 3 Zrotation Yrotation Xrotation
								JOINT RightFingerBase
								{
									OFFSET 0 0 0
									CHANNELS 3 Zrotation Yrotation Xrotation
									JOINT RightHandIndex1
									{
										OFFSET -0.71819 -0.00000 -0.00000
										CHANNELS 3 Zrotation Yrotation Xrotation
										End Site
										{
											OFFSET -0.57902 -0.00000 -0.00000
										}
									}
								}
								JOINT RThumb
								{
									OFFSET 0 0 0
									CHANNELS 3 Zrotation Yrotation Xrotation
									End Site
									{
										OFFSET -0.58786 -0.00000 0.58786
									}
								}
							}
						}
					}
				}
			}
		}
	}
}
MOTION
Frames: 5
Frame Time: 0.0166666
-23.7747 14.6309 0.1455 -118.4940 86.0256 -111.3460 0.0000 0.0000 0.0000 -15.4921 -17.8559 -33.1839 6.0612 14.4874 45.2269 1.1909 -0.6774 -20.4228 0.3496 -3.7990 -10.5118 0.0000 0.0000 0.0000 28.3195 -4.3035 5.3614 -12.4001 -18.5547 67.2516 0.7615 -17.6099 -16.0438 -1.5928 7.9608 -22.5950 0.7005 0.6801 11.0525 -3.1867 1.1833 5.5128 -3.8375 0.7580 -0.3633 6.4216 2.5213 -9.0437 -2.0997 3.0601 -7.6713 -1.6790 1.5084 -0.7594 0.0000 0.0000 0.0000 -86.0727 32.2672 23.7827 113.0894 -57.8865 -79.8541 -0.0000 0.0000 -14.6115 23.0799 -6.9263 -2.9417 -7.1250 0.0000 -0.0000 -2.7063 22.4602 1.4687 0.0000 0.0000 0.0000 78.0396 -29.7764 49.2262 -111.4243 58.1926 -78.4414 0.0000 -0.0000 -37.6322 -35.6301 20.4288 -14.0453 7.1250 -0.0000 -0.0000 -4.4690 -5.4234 -4.0392
-22.1816 14.3392 0.1394 -212.2720 87.7500 -205.1710 0.0000 0.0000 0.0000 -22.5961 -16.2114 -27.7764 6.9875 15.3213 48.8269 2.0331 -2.9762 -26.2091 0.0878 -1.9109 -5.2595 0.0000 0.0000 0.0000 22.8912 -0.2643 -6.1859 -18.2336 -19.9250 84.8293 0.3314 -15.3795 -17.9589 -1.5904 7.9550 -22.5776 -4.3841 0.7368 12.4091 -4.4055 0.6634 4.9210 -2.2190 0.4598 -1.7778 5.7643 2.3533 -8.6130 -0.9366 2.9762 -8.0118 -1.2014 1.4781 -0.9693 0.0000 -0.0000 0.0000 -83.1386 21.7852 29.1047 115.3384 -57.4293 -81.7543 -0.0000 0.0000 -13.3538 21.1168 -7.2273 -2.7817 -7.1250 0.0000 -0.0000 -4.1467 22.2451 2.2740 0.0000 -0.0000 0.0000 82.0355 -32.9856 47.5141 -89.8900 60.0000 -59.9047 0.0000 -0.0000 -37.3539 -37.4829 18.7509 -13.8478 7.1250 -0.0000 -0.0000 -5.9188 -6.9215 -5.1908
-20.5713 14.2197 0.1066 -227.4970 86.6327 -218.9880 0.0000 0.0000 0.0000 -25.5503 -13.8323 -21.0936 6.6158 14.9996 47.4058 2.8837 -5.4050 -30.9894 0.0370 -1.2419 -3.4148 0.0000 0.0000 0.0000 21.0045 5.7478 -19.5928 -22.1698 -19.8867 96.3556 0.1292 -15.1424 -20.0869 -0.9554 6.2244 -17.4368 -5.5896 0.7268 11.9359 -4.4445 0.4509 4.0337 -1.5572 0.3457 -2.4550 5.3558 2.0391 -8.1533 -1.0620 2.6050 -8.2454 -1.1877 1.2968 -1.1320 -0.0000 0.0000 0.0000 -81.1701 9.8587 35.1297 119.8876 -56.3398 -85.5654 -0.0000 0.0000 -10.9921 20.7887 -8.3435 -3.1532 -7.1250 0.0000 -0.0000 -4.3923 21.0755 2.5263 -0.0000 0.0000 0.0000 84.9009 -36.8594 45.6770 -73.9465 59.0035 -46.1438 0.0000 -0.0000 -41.9809 -40.4131 17.2454 -14.1671 7.1250 -0.0000 -0.0000 -8.0315 -7.9769 -6.9092
-18.8990 14.2720 0.0869 -215.5490 85.3084 -206.3950 0.0000 0.0000 0.0000 -27.0653 -10.9387 -11.1951 5.1772 13.5806 41.5828 3.0234 -5.6199 -31.7386 0.1285 -2.3110 -6.3659 0.0000 0.0000 0.0000 20.0649 11.1273 -31.1162 -23.2580 -19.7436 99.5651 -0.1040 -14.4340 -21.6030 -1.6307 8.0503 -22.8671 -5.7157 -0.0945 10.9801 -3.7150 -0.6057 3.7667 -0.5761 -0.2038 -2.1889 5.7952 2.3105 -8.0969 -2.6130 2.8265 -7.5306 -1.7522 1.3959 -0.8781 -0.0000 -0.0000 0.0000 -81.7465 -0.7504 38.7389 126.4317 -54.3371 -90.9507 -0.0000 0.0000 -7.1235 21.0576 -10.2978 -3.9373 -7.1250 0.0000 -0.0000 -4.2303 18.9792 2.6317 -0.0000 -0.0000 0.0000 84.1480 -40.5170 47.9760 -67.4837 57.9949 -40.6315 0.0000 -0.0000 -46.4372 -43.3709 14.9716 -13.7150 7.1250 -0.0000 -0.0000 -10.3378 -10.0392 -8.5210
-17.1375 14.4687 0.0502 -215.1630 83.3819 -206.4220 0.0000 0.0000 0.0000 -29.3475 -8.7795 0.9988 3.3912 11.3028 33.3081 1.7357 -0.4963 -24.7822 0.8958 -6.0325 -16.8788 0.0000 0.0000 0.0000 17.3617 14.7380 -38.8116 -21.5158 -19.9448 94.4360 -0.2584 -12.1651 -20.3573 -2.7364 10.2555 -29.8083 -6.3480 -1.3887 10.3304 -3.1772 -2.3129 3.8790 0.5256 -1.0769 -1.6089 5.9454 3.2117 -7.5866 -3.8728 3.9721 -7.2410 -2.1693 1.9648 -0.7899 0.0000 -0.0000 0.0000 -82.4937 -7.0901 39.8615 134.3113 -51.1015 -97.2265 -0.0000 0.0000 -6.2855 20.4153 -10.0213 -3.7058 -7.1250 0.0000 -0.0000 -4.6811 19.3208 2.8783 0.0000 -0.0000 0.0000 81.0136 -44.4784 51.8129 -68.0752 58.1034 -41.1335 0.0000 -0.0000 -44.9852 -41.1824 15.4494 -13.1192 7.1250 -0.0000 -0.0000 -8.8587 -10.0052 -7.2747
